<svg xmlns="http://www.w3.org/2000/svg" width="800" height="380" viewBox="0 0 800 380">
  <rect width="800" height="380" fill="#2B1A15"/>
  <path d="M 336,40 C 496,30 640,66 810,84" stroke="#E8845C" stroke-opacity="0.210" stroke-width="2" fill="none"/>
  <path d="M 336,67 C 496,57 640,97 810,115" stroke="#E8845C" stroke-opacity="0.195" stroke-width="2" fill="none"/>
  <path d="M 336,95 C 496,85 640,128 810,146" stroke="#E8845C" stroke-opacity="0.181" stroke-width="2" fill="none"/>
  <path d="M 336,122 C 496,112 640,159 810,177" stroke="#E8845C" stroke-opacity="0.166" stroke-width="2" fill="none"/>
  <path d="M 336,149 C 496,139 640,190 810,208" stroke="#E8845C" stroke-opacity="0.152" stroke-width="2" fill="none"/>
  <path d="M 336,176 C 496,166 640,221 810,239" stroke="#E8845C" stroke-opacity="0.137" stroke-width="2" fill="none"/>
  <path d="M 336,204 C 496,194 640,251 810,269" stroke="#E8845C" stroke-opacity="0.123" stroke-width="2" fill="none"/>
  <path d="M 336,231 C 496,221 640,282 810,300" stroke="#E8845C" stroke-opacity="0.108" stroke-width="2" fill="none"/>
  <path d="M 336,258 C 496,248 640,313 810,331" stroke="#E8845C" stroke-opacity="0.094" stroke-width="2" fill="none"/>
  <path d="M 336,285 C 496,275 640,344 810,362" stroke="#E8845C" stroke-opacity="0.079" stroke-width="2" fill="none"/>
  <path d="M 336,313 C 496,303 640,375 810,393" stroke="#E8845C" stroke-opacity="0.065" stroke-width="2" fill="none"/>
  <path d="M 336,340 C 496,330 640,406 810,424" stroke="#E8845C" stroke-opacity="0.050" stroke-width="2" fill="none"/>
  <path fill-rule="evenodd" fill="#D4552F" d="M 209.6,100.2 C 280.4,100.2 345.8,131.4 345.8,194.4 C 345.8,244.8 285.2,319.8 231.8,349.8 C 221.6,355.8 197.6,355.8 187.4,349.8 C 134.0,319.8 73.4,244.8 73.4,194.4 C 73.4,131.4 138.8,100.2 209.6,100.2 Z M 245.0,207.0 L 244.8,210.5 L 244.3,213.9 L 243.5,217.3 L 242.3,220.5 L 240.8,223.7 L 239.0,226.7 L 237.0,229.5 L 234.6,232.0 L 232.1,234.4 L 229.3,236.4 L 226.3,238.2 L 223.1,239.7 L 219.9,240.9 L 216.5,241.7 L 213.1,242.2 L 209.6,242.4 L 206.1,242.2 L 202.7,241.7 L 199.3,240.9 L 196.1,239.7 L 192.9,238.2 L 189.9,236.4 L 187.1,234.4 L 184.6,232.0 L 182.2,229.5 L 180.2,226.7 L 178.4,223.7 L 176.9,220.5 L 175.7,217.3 L 174.9,213.9 L 174.4,210.5 L 174.2,207.0 L 174.4,203.5 L 174.9,200.1 L 175.7,196.7 L 176.9,193.5 L 178.4,190.3 L 180.2,187.3 L 182.2,184.5 L 184.6,182.0 L 187.1,179.6 L 189.9,177.6 L 192.9,175.8 L 196.1,174.3 L 199.3,173.1 L 202.7,172.3 L 206.1,171.8 L 209.6,171.6 L 213.1,171.8 L 216.5,172.3 L 219.9,173.1 L 223.1,174.3 L 226.3,175.8 L 229.3,177.6 L 232.1,179.6 L 234.6,182.0 L 237.0,184.5 L 239.0,187.3 L 240.8,190.3 L 242.3,193.5 L 243.5,196.7 L 244.3,200.1 L 244.8,203.5 L 245.0,207.0 Z M 259.4,207.0 L 259.2,211.9 L 258.4,216.7 L 257.3,221.5 L 255.6,226.1 L 253.5,230.5 L 251.0,234.7 L 248.1,238.6 L 244.8,242.2 L 241.2,245.5 L 237.3,248.4 L 233.1,250.9 L 228.7,253.0 L 224.1,254.7 L 219.3,255.8 L 214.5,256.6 L 209.6,256.8 L 204.7,256.6 L 199.9,255.8 L 195.1,254.7 L 190.5,253.0 L 186.1,250.9 L 181.9,248.4 L 178.0,245.5 L 174.4,242.2 L 171.1,238.6 L 168.2,234.7 L 165.7,230.5 L 163.6,226.1 L 161.9,221.5 L 160.8,216.7 L 160.0,211.9 L 159.8,207.0 L 160.0,202.1 L 160.8,197.3 L 161.9,192.5 L 163.6,187.9 L 165.7,183.5 L 168.2,179.3 L 171.1,175.4 L 174.4,171.8 L 178.0,168.5 L 181.9,165.6 L 186.1,163.1 L 190.5,161.0 L 195.1,159.3 L 199.9,158.2 L 204.7,157.4 L 209.6,157.2 L 214.5,157.4 L 219.3,158.2 L 224.1,159.3 L 228.7,161.0 L 233.1,163.1 L 237.3,165.6 L 241.2,168.5 L 244.8,171.8 L 248.1,175.4 L 251.0,179.3 L 253.5,183.5 L 255.6,187.9 L 257.3,192.5 L 258.4,197.3 L 259.2,202.1 L 259.4,207.0 Z M 268.4,207.0 L 268.1,212.8 L 267.3,218.5 L 265.9,224.1 L 263.9,229.5 L 261.5,234.7 L 258.5,239.7 L 255.1,244.3 L 251.2,248.6 L 246.9,252.5 L 242.3,255.9 L 237.3,258.9 L 232.1,261.3 L 226.7,263.3 L 221.1,264.7 L 215.4,265.5 L 209.6,265.8 L 203.8,265.5 L 198.1,264.7 L 192.5,263.3 L 187.1,261.3 L 181.9,258.9 L 176.9,255.9 L 172.3,252.5 L 168.0,248.6 L 164.1,244.3 L 160.7,239.7 L 157.7,234.7 L 155.3,229.5 L 153.3,224.1 L 151.9,218.5 L 151.1,212.8 L 150.8,207.0 L 151.1,201.2 L 151.9,195.5 L 153.3,189.9 L 155.3,184.5 L 157.7,179.3 L 160.7,174.3 L 164.1,169.7 L 168.0,165.4 L 172.3,161.5 L 176.9,158.1 L 181.9,155.1 L 187.1,152.7 L 192.5,150.7 L 198.1,149.3 L 203.8,148.5 L 209.6,148.2 L 215.4,148.5 L 221.1,149.3 L 226.7,150.7 L 232.1,152.7 L 237.3,155.1 L 242.3,158.1 L 246.9,161.5 L 251.2,165.4 L 255.1,169.7 L 258.5,174.3 L 261.5,179.3 L 263.9,184.5 L 265.9,189.9 L 267.3,195.5 L 268.1,201.2 L 268.4,207.0 Z M 204.5,148.2 L 204.5,128.4 L 214.7,128.4 L 214.7,148.2 Z M 234.6,153.5 L 244.5,136.4 L 253.3,141.5 L 243.4,158.6 Z M 258.0,173.2 L 275.1,163.3 L 280.2,172.1 L 263.1,182.0 Z M 268.4,201.9 L 288.2,201.9 L 288.2,212.1 L 268.4,212.1 Z M 263.1,232.0 L 280.2,241.9 L 275.1,250.7 L 258.0,240.8 Z M 243.4,255.4 L 253.3,272.5 L 244.5,277.6 L 234.6,260.5 Z M 214.7,265.8 L 214.7,285.6 L 204.5,285.6 L 204.5,265.8 Z M 184.6,260.5 L 174.7,277.6 L 165.9,272.5 L 175.8,255.4 Z M 161.2,240.8 L 144.1,250.7 L 139.0,241.9 L 156.1,232.0 Z M 150.8,212.1 L 131.0,212.1 L 131.0,201.9 L 150.8,201.9 Z M 156.1,182.0 L 139.0,172.1 L 144.1,163.3 L 161.2,173.2 Z M 175.8,158.6 L 165.9,141.5 L 174.7,136.4 L 184.6,153.5 Z"/>
</svg>
